<svg width="456" height="464" viewBox="0 0 456 464" fill="none" xmlns="http://www.w3.org/2000/svg">
<circle cx="228" cy="228" r="228" fill="white"/>
<mask id="mask0_1016_14034" style="mask-type:alpha" maskUnits="userSpaceOnUse" x="0" y="0" width="456" height="456">
<circle cx="228" cy="228" r="228" fill="white"/>
</mask>
<g mask="url(#mask0_1016_14034)">
<path d="M285.693 114.843C277.074 117.226 256.736 53.3981 249.726 57.16C242.832 60.922 235.823 78.7285 235.823 78.7285C233.18 72.2078 226.17 54.6521 218.471 60.1696C208.474 67.4427 196.869 103.056 196.869 118.605C196.869 139.547 177.679 183.938 177.679 183.938C177.679 183.938 140.564 296.67 160.903 278.237C181.241 259.803 205.487 276.983 216.288 287.266C226.975 297.297 238.465 310.84 261.792 310.84C268.916 310.84 289.255 306.075 289.485 294.288C289.944 261.684 301.78 234.724 301.78 234.724C301.78 234.724 310.742 234.222 347.168 230.46C383.479 226.698 393.476 200.741 393.476 200.741C393.476 200.741 411.632 180.426 380.951 170.52C335.103 155.723 328.553 150.205 328.553 150.205C303.503 100.799 262.711 109.075 262.711 109.075C256.621 109.2 251.22 109.576 246.279 110.203C211.922 114.342 204.683 128.512 204.683 128.512" fill="#B4524E"/>
<path d="M376.124 169.141C376.124 169.141 368.885 185.693 393.475 200.867C393.475 200.867 413.929 179.298 376.124 169.141Z" fill="#414042"/>
<path d="M275.58 154.72C275.58 154.72 304.996 140.048 307.524 169.141C307.524 169.141 301.894 167.51 296.263 169.141C290.978 170.645 281.67 172.401 275.58 154.72Z" fill="#414042"/>
<path d="M202.958 125.627C202.958 125.627 201.349 116.096 203.418 105.312C207.095 85.2484 221.458 56.783 227.663 63.0529C235.247 70.8276 237.89 74.8403 241.222 111.08C241.222 111.08 220.999 110.203 202.958 125.627Z" fill="#414042"/>
<path d="M246.279 110.329C246.279 110.329 241.223 62.8033 254.092 60.2953C255.471 60.2953 278.568 109.451 279.372 109.702C281.096 110.078 264.664 107.194 246.279 110.329Z" fill="#414042"/>
<path d="M179.173 179.799C179.173 179.799 190.549 267.076 204.223 277.86C204.223 277.86 179.173 262.436 158.145 280.87C158.03 280.995 138.84 283.879 179.173 179.799Z" fill="#414042"/>
<g opacity="0.66">
<g opacity="0.66">
<g opacity="0.66">
<path opacity="0.66" d="M196.064 127.257C196.064 127.257 208.014 310.966 288.794 297.924C288.794 297.924 285.577 309.085 261.791 311.091C261.791 311.091 241.912 314.226 222.952 293.786C222.952 293.786 205.831 278.738 204.107 277.986C204.107 277.986 194.455 271.34 188.94 236.604C188.94 236.604 177.564 183.561 179.057 179.925C179.172 179.799 195.949 132.524 196.064 127.257Z" fill="#6D6E71"/>
</g>
</g>
</g>
<path d="M248.463 222.435C248.463 222.435 289.6 240.618 301.78 234.975C301.78 234.975 296.954 248.017 295.919 252.029C295.919 252.029 293.736 260.431 293.162 263.441C293.162 263.315 252.944 271.341 248.463 222.435Z" fill="#414042"/>
<path d="M248.462 222.435C248.462 222.435 251.449 261.936 293.161 263.315C293.161 263.315 289.944 281.247 289.944 285.009C289.944 285.009 230.077 287.893 248.462 222.435Z" fill="#58595B"/>
<g opacity="0.26">
<g opacity="0.26">
<g opacity="0.26">
<path opacity="0.26" d="M380.491 217.418C380.491 217.418 288.91 224.691 248.347 222.434C248.347 222.434 289.829 241.118 301.664 234.974C301.664 234.974 347.513 231.337 354.292 229.582C354.407 229.582 368.771 227.575 380.491 217.418Z" fill="#C49A6C"/>
</g>
</g>
</g>
<path d="M159.983 154.468C151.365 156.851 131.026 93.0233 124.017 96.7853C117.123 100.547 110.113 118.354 110.113 118.354C107.47 111.833 100.461 94.2773 92.7621 99.7948C82.7652 107.068 71.1595 142.681 71.1595 158.23C71.1595 179.172 51.9699 223.563 51.9699 223.563C51.9699 223.563 14.8546 336.296 35.1933 317.862C55.532 299.429 79.6626 316.608 90.5789 326.891C101.265 336.923 112.756 350.466 136.082 350.466C143.207 350.466 163.545 345.7 163.775 333.913C164.235 301.31 176.07 274.349 176.07 274.349C176.07 274.349 185.033 273.847 221.459 270.085C257.77 266.323 267.767 240.366 267.767 240.366C267.767 240.366 285.922 220.052 255.242 210.145C209.394 195.348 202.844 189.831 202.844 189.831C177.794 140.424 137.002 148.7 137.002 148.7C130.912 148.825 125.511 149.202 120.57 149.829C86.2124 153.967 78.9732 168.137 78.9732 168.137" fill="#B4524E"/>
<path d="M250.415 208.642C250.415 208.642 243.176 225.194 267.766 240.367C267.766 240.367 288.22 218.799 250.415 208.642Z" fill="#414042"/>
<path d="M149.871 194.219C149.871 194.219 179.287 179.547 181.815 208.64C181.815 208.64 176.185 207.009 170.554 208.64C165.268 210.144 155.961 211.9 149.871 194.219Z" fill="#414042"/>
<path d="M77.2495 165.127C77.2495 165.127 75.6408 155.597 77.7091 144.813C81.3862 124.749 95.7496 96.2838 101.955 102.554C109.539 110.328 112.181 114.341 115.514 150.581C115.514 150.581 95.29 149.703 77.2495 165.127Z" fill="#414042"/>
<path d="M120.57 149.828C120.57 149.828 115.514 102.302 128.384 99.7943C129.763 99.7943 152.859 148.95 153.663 149.201C155.387 149.577 138.955 146.693 120.57 149.828Z" fill="#414042"/>
<path d="M53.4634 219.299C53.4634 219.299 64.8393 306.577 78.5133 317.361C78.5133 317.361 53.4634 301.937 32.4353 320.37C32.3204 320.496 13.1308 323.38 53.4634 219.299Z" fill="#414042"/>
<path d="M70.3545 166.758C70.3545 166.758 82.3049 350.466 163.085 337.425C163.085 337.425 159.868 348.585 136.082 350.592C136.082 350.592 116.203 353.727 97.2429 333.287C97.2429 333.287 80.1216 318.239 78.398 317.487C78.398 317.487 68.7458 310.841 63.2302 276.105C63.2302 276.105 51.8543 223.062 53.3481 219.425C53.463 219.3 70.2396 172.025 70.3545 166.758Z" fill="#6D6E71"/>
<path d="M122.753 261.934C122.753 261.934 163.89 280.117 176.07 274.474C176.07 274.474 172.853 287.516 171.934 291.528C171.934 291.528 171.474 303.943 170.785 306.827C170.67 306.827 127.235 310.84 122.753 261.934Z" fill="#414042"/>
<path d="M122.752 261.934C122.752 261.934 127.579 302.187 169.29 303.692C169.29 303.692 164.234 320.746 164.234 324.508C164.234 324.508 104.367 327.518 122.752 261.934Z" fill="#58595B"/>
<g opacity="0.26">
<g opacity="0.26">
<g opacity="0.26">
<path opacity="0.26" d="M254.781 256.919C254.781 256.919 163.2 264.192 122.637 261.935C122.637 261.935 164.119 280.619 175.955 274.475C175.955 274.475 221.803 270.838 228.582 269.083C228.697 269.083 243.061 267.202 254.781 256.919Z" fill="#C49A6C"/>
</g>
</g>
</g>
<path d="M260.297 276.857C251.679 279.24 231.341 215.412 224.331 219.174C217.437 222.936 210.427 240.742 210.427 240.742C207.784 234.222 200.775 216.666 193.076 222.183C183.079 229.456 171.818 265.07 171.474 280.619C170.899 306.325 152.054 347.832 152.284 345.951C152.284 345.951 115.169 458.684 135.507 440.251C155.846 421.817 179.977 438.997 190.893 449.279C201.579 459.311 213.07 472.854 236.396 472.854C243.521 472.854 263.859 468.089 264.089 456.302C264.549 423.698 276.384 396.738 276.384 396.738C276.384 396.738 285.347 396.236 321.773 392.474C358.084 388.712 368.081 362.755 368.081 362.755C368.081 362.755 386.236 342.44 355.556 332.534C309.708 317.737 303.158 312.219 303.158 312.219C278.108 262.812 237.316 271.089 237.316 271.089C231.226 271.214 225.825 271.59 220.884 272.217C186.526 276.355 179.287 290.525 179.287 290.525" fill="#B4524E"/>
<path d="M350.73 331.028C350.73 331.028 343.49 347.581 368.081 362.754C368.081 362.879 388.534 341.186 350.73 331.028Z" fill="#414042"/>
<path d="M250.185 316.607C250.185 316.607 279.602 301.936 282.13 331.028C282.13 331.028 276.499 329.398 270.869 331.028C265.583 332.533 256.275 334.288 250.185 316.607Z" fill="#414042"/>
<path d="M177.679 287.516C177.679 287.516 176.071 277.986 178.139 267.201C181.816 247.138 196.179 218.672 202.385 224.942C209.968 232.717 212.611 236.73 215.944 272.97C215.829 272.97 195.605 272.217 177.679 287.516Z" fill="#414042"/>
<path d="M220.884 272.217C220.884 272.217 215.829 224.691 228.698 222.183C230.077 222.183 253.174 271.339 253.978 271.59C255.702 271.966 239.385 269.082 220.884 272.217Z" fill="#414042"/>
<path d="M152.284 344.572C152.858 346.704 185.952 449.781 198.247 456.051C198.247 456.051 154.237 423.072 133.209 441.505C133.324 441.505 111.951 448.653 152.284 344.572Z" fill="#414042"/>
<path d="M223.067 384.324C223.067 384.324 264.204 402.507 276.384 396.864C276.384 396.864 271.558 409.905 270.524 413.918C270.524 413.918 268.341 422.32 267.766 425.329C267.766 425.204 227.549 433.229 223.067 384.324Z" fill="#414042"/>
<path d="M223.067 384.324C223.067 384.324 226.055 423.824 267.767 425.204C267.767 425.204 264.549 443.136 264.549 446.898C264.549 446.898 204.682 449.907 223.067 384.324Z" fill="#58595B"/>
<g opacity="0.26">
<g opacity="0.26">
<g opacity="0.26">
<path opacity="0.26" d="M355.211 379.308C355.211 379.308 263.63 386.581 223.067 384.324C223.067 384.324 264.549 403.008 276.385 396.863C276.385 396.863 322.233 393.227 329.012 391.471C329.012 391.471 343.376 389.59 355.211 379.308Z" fill="#C49A6C"/>
</g>
</g>
</g>
<path d="M29.1028 317.989C29.1028 317.989 70.01 428.088 134.703 443.387L136.657 417.555L151.135 366.016L152.399 344.448C152.399 344.448 110.458 345.451 89.5443 325.011C89.5443 325.011 85.0629 322.127 78.5131 317.236C71.9634 312.346 32.55 300.934 33.5842 313.098C34.6184 325.262 31.9755 310.841 31.9755 310.841L29.1028 317.989Z" fill="#414042"/>
<path d="M221.459 482.008L238.005 469.719C238.005 469.719 201.695 476.491 184.918 433.605C168.141 390.718 159.753 416.676 159.753 416.676L151.71 438.871L170.44 473.983L208.359 484.892L221.459 482.008Z" fill="#414042"/>
<path d="M53.1187 220.931C53.1187 220.931 69.5505 414.42 152.744 345.451L146.309 341.94L130.796 339.181L115.973 328.271L94.7153 293.411L71.8486 245.885L53.1187 220.931Z" fill="#6D6E71"/>
<path d="M29.7922 293.285C29.7922 293.285 -11.5747 461.945 23.817 449.907C23.817 449.907 100.92 435.235 148.377 474.986C148.377 474.986 242.142 552.859 263.974 457.556C260.757 471.977 166.647 489.282 154.812 427.837C144.93 376.925 78.3982 362.755 78.3982 362.755L29.7922 293.285Z" fill="#414042"/>
</g>
</svg>
